# xmcd
#
# Track frame offsets:
#	150
#	16728
#	37449
#	54086
#	64885
#	83202
#	103271
#	119864
#	140566
#	157210
#	168063
#	186441
#
# Disc length: 2753 seconds
#
# Revision: 1
# Processed by: cddbd v1.5.2PL0 Copyright (c) Steve Scherf et al.
# Submitted via: audiograbber 1.83.01
#
DISCID=af0abf0c
DTITLE=Chartbusters 6+6 Country - CB6+20284
DYEAR=1900
DGENRE=
TTITLE0=Urban, Keith - Where The Blacktop Ends (w/ Vocals)
TTITLE1=Worley, Darryl - Second Wind (w/ Vocals)
TTITLE2=Cyrus, Billy Ray - Crazy 'Bout You Baby
TTITLE3=Tractors, The - Can't Get Nowhere (w/ Vocals)
TTITLE4=Shelton, Blake - Austin (w/ Vocals)
TTITLE5=Lonestar - I'm Already There (w/ Vocals)
TTITLE6=Urban, Keith - Where The Blacktop Ends
TTITLE7=Worley, Darryl - Second Wind
TTITLE8=Cyrus, Billy Ray - Crazy 'Bout You Baby
TTITLE9=Tractors, The - Can't Get Nowhere
TTITLE10=Shelton, Blake - Austin
TTITLE11=Lonestar - I'm Already There
EXTD=Chartbusters Karaoke Disc
EXTT0=
EXTT1=
EXTT2=
EXTT3=
EXTT4=
EXTT5=
EXTT6=
EXTT7=
EXTT8=
EXTT9=
EXTT10=
EXTT11=
PLAYORDER=
